<?xml version="1.0" standalone="no"?>
<!DOCTYPE svg PUBLIC "-//W3C//DTD SVG 20010904//EN"
 "http://www.w3.org/TR/2001/REC-SVG-20010904/DTD/svg10.dtd">
<svg version="1.0" xmlns="http://www.w3.org/2000/svg"
 width="48.000000pt" height="48.000000pt" viewBox="0 0 48.000000 48.000000"
 preserveAspectRatio="xMidYMid meet">

<g transform="translate(0.000000,48.000000) scale(0.100000,-0.100000)"
fill="#000000" stroke="none">
<path d="M53 240 c10 -51 29 -63 35 -22 2 12 7 22 12 22 5 0 10 -10 12 -22 6
-41 25 -29 35 22 8 40 7 50 -3 50 -8 0 -14 -12 -15 -27 l-1 -28 -11 28 c-6 15
-14 27 -17 27 -3 0 -11 -12 -17 -27 l-11 -28 -1 28 c-1 15 -7 27 -15 27 -10 0
-11 -10 -3 -50z"/>
<path d="M193 240 c10 -51 29 -63 35 -22 2 12 7 22 12 22 5 0 10 -10 12 -22 6
-41 25 -29 35 22 8 40 7 50 -3 50 -8 0 -14 -12 -15 -27 l-1 -28 -11 28 c-6 15
-14 27 -17 27 -3 0 -11 -12 -17 -27 l-11 -28 -1 28 c-1 15 -7 27 -15 27 -10 0
-11 -10 -3 -50z"/>
<path d="M333 240 c10 -51 29 -63 35 -22 2 12 7 22 12 22 5 0 10 -10 12 -22 6
-41 25 -29 35 22 8 40 7 50 -3 50 -8 0 -14 -12 -15 -27 l-1 -28 -11 28 c-6 15
-14 27 -17 27 -3 0 -11 -12 -17 -27 l-11 -28 -1 28 c-1 15 -7 27 -15 27 -10 0
-11 -10 -3 -50z"/>
</g>
</svg>
